<?xml version="1.0" encoding="utf-8"?>
<svg viewBox="12.279 195.407 599.804 99" xmlns="http://www.w3.org/2000/svg">
  <path class="st0" d="M 396.484 229.707 C 394.484 231.207 392.784 233.007 391.384 234.907 C 391.284 234.507 391.284 233.907 391.184 233.307 C 391.084 232.607 390.984 232.007 390.884 231.307 C 390.784 230.607 390.584 230.007 390.484 229.407 C 390.284 228.807 390.184 228.407 389.984 228.007 C 389.084 227.807 388.184 227.707 387.284 227.507 C 386.384 227.407 385.484 227.307 384.484 227.307 C 383.484 227.307 382.584 227.307 381.684 227.407 C 380.884 227.507 379.984 227.607 378.984 227.807 L 378.984 276.607 C 380.184 276.807 381.284 276.907 382.384 277.007 C 383.484 277.107 384.584 277.107 385.584 277.107 C 386.684 277.107 387.784 277.107 388.884 277.007 C 389.984 276.907 391.184 276.807 392.284 276.607 L 392.284 253.507 C 392.284 250.107 392.684 247.507 393.484 245.607 C 394.284 243.707 395.284 242.307 396.484 241.407 C 397.684 240.507 398.884 239.907 400.284 239.707 C 401.584 239.507 402.784 239.407 403.884 239.407 L 405.484 239.407 C 406.284 239.407 407.084 239.507 407.784 239.607 C 408.084 238.507 408.184 237.307 408.284 236.007 C 408.384 234.707 408.384 233.607 408.384 232.507 C 408.384 231.607 408.384 230.807 408.284 230.007 C 408.184 229.207 408.084 228.507 407.984 227.807 C 407.584 227.707 406.984 227.607 406.184 227.507 C 405.384 227.407 404.684 227.407 403.984 227.407 C 400.984 227.407 398.484 228.207 396.484 229.707 M 234.084 267.107 C 232.984 267.007 231.984 266.807 230.984 266.307 C 229.984 265.907 229.184 265.307 228.484 264.407 C 227.784 263.507 227.484 262.307 227.484 260.607 C 227.484 258.207 228.384 256.407 230.184 255.307 C 231.984 254.207 234.384 253.707 237.484 253.707 C 238.184 253.707 238.984 253.707 239.884 253.807 C 240.784 253.907 241.584 254.007 242.284 254.107 L 242.284 266.607 C 241.584 266.707 240.784 266.907 239.884 267.007 C 238.984 267.207 237.984 267.207 237.084 267.207 C 236.084 267.307 235.184 267.207 234.084 267.107 M 226.684 227.507 C 223.884 227.907 221.184 228.607 218.384 229.607 C 218.384 231.607 218.584 233.307 219.084 234.807 C 219.484 236.207 220.184 237.807 221.084 239.407 C 224.884 238.107 228.484 237.407 231.884 237.407 C 233.484 237.407 234.884 237.507 236.184 237.707 C 237.484 237.907 238.584 238.207 239.384 238.807 C 240.284 239.307 240.984 240.107 241.484 241.007 C 241.984 241.907 242.284 243.207 242.284 244.707 L 242.284 245.807 C 240.084 245.607 238.084 245.507 236.284 245.507 C 233.784 245.507 231.284 245.807 228.784 246.307 C 226.284 246.807 223.984 247.707 221.984 248.907 C 219.984 250.107 218.284 251.807 216.984 253.807 C 215.684 255.807 215.084 258.407 215.084 261.407 C 215.084 264.407 215.584 266.907 216.684 269.007 C 217.684 271.107 219.184 272.807 221.084 274.107 C 222.984 275.407 225.284 276.407 227.984 276.907 C 230.684 277.507 233.584 277.707 236.784 277.707 C 240.784 277.707 244.284 277.407 247.384 276.807 C 250.484 276.207 253.184 275.507 255.384 274.807 L 255.384 246.607 C 255.384 239.707 253.584 234.707 249.884 231.607 C 246.184 228.507 241.084 226.907 234.584 226.907 C 231.984 226.807 229.384 227.107 226.684 227.507 M 345.084 239.607 C 346.684 237.807 349.084 237.007 352.284 237.007 C 355.084 237.007 357.184 237.907 358.684 239.807 C 360.184 241.607 361.084 244.107 361.184 247.107 L 342.184 247.107 C 342.484 243.807 343.484 241.407 345.084 239.607 M 342.284 228.907 C 339.384 230.207 336.884 232.107 334.984 234.407 C 332.984 236.707 331.484 239.407 330.484 242.607 C 329.484 245.707 328.984 249.107 328.984 252.607 C 328.984 256.207 329.484 259.607 330.484 262.607 C 331.484 265.707 332.984 268.307 334.984 270.507 C 336.984 272.707 339.684 274.507 342.884 275.707 C 346.084 277.007 349.984 277.607 354.484 277.607 C 360.584 277.607 366.184 276.707 371.084 274.807 C 370.984 272.807 370.784 270.907 370.284 269.207 C 369.784 267.407 369.184 265.907 368.484 264.707 C 366.484 265.507 364.384 266.007 362.184 266.407 C 359.984 266.807 357.784 267.007 355.684 267.007 C 351.784 267.007 348.684 266.207 346.284 264.507 C 343.884 262.807 342.584 260.107 342.284 256.307 L 373.384 256.307 C 373.484 255.607 373.584 254.707 373.684 253.507 C 373.784 252.307 373.784 251.207 373.784 250.007 C 373.784 246.807 373.284 243.707 372.384 240.907 C 371.484 238.107 370.084 235.607 368.184 233.507 C 366.284 231.407 364.084 229.807 361.484 228.607 C 358.884 227.407 355.884 226.807 352.484 226.807 C 348.584 226.807 345.184 227.507 342.284 228.907 M 460.384 229.407 C 458.084 231.107 456.284 233.107 455.084 235.507 C 452.984 229.707 448.084 226.907 440.484 226.907 C 438.684 226.907 437.184 227.107 435.684 227.607 C 434.284 228.107 432.984 228.707 431.884 229.407 C 430.784 230.207 429.784 231.007 428.984 231.907 C 428.184 232.807 427.484 233.807 426.984 234.707 C 426.884 234.307 426.884 233.707 426.784 233.107 C 426.684 232.507 426.584 231.807 426.484 231.207 C 426.384 230.507 426.184 229.907 426.084 229.307 C 425.884 228.707 425.784 228.307 425.584 227.907 C 424.684 227.707 423.884 227.607 423.084 227.507 C 422.284 227.407 421.284 227.407 420.284 227.407 C 419.184 227.407 418.284 227.407 417.384 227.507 C 416.484 227.607 415.584 227.707 414.784 227.907 L 414.784 276.407 C 417.084 276.807 419.284 277.007 421.484 277.007 C 423.684 277.007 425.884 276.807 428.184 276.407 L 428.184 251.007 C 428.184 248.407 428.484 246.207 428.984 244.607 C 429.484 243.007 430.184 241.707 430.984 240.807 C 431.784 239.907 432.784 239.307 433.884 239.007 C 434.984 238.707 435.984 238.507 437.084 238.507 C 439.684 238.507 441.384 239.407 442.184 241.207 C 442.984 243.007 443.484 245.607 443.484 249.007 L 443.484 276.407 C 445.784 276.807 447.984 277.007 450.184 277.007 C 452.384 277.007 454.584 276.807 456.884 276.407 L 456.884 250.207 C 456.884 247.807 457.184 245.807 457.684 244.207 C 458.184 242.707 458.884 241.507 459.784 240.607 C 460.584 239.807 461.584 239.207 462.584 238.907 C 463.584 238.607 464.684 238.407 465.784 238.407 C 468.384 238.407 470.084 239.307 470.884 241.107 C 471.684 242.907 472.184 245.507 472.184 248.907 L 472.184 276.307 C 474.484 276.707 476.684 276.907 478.884 276.907 C 481.084 276.907 483.284 276.707 485.584 276.307 L 485.584 245.607 C 485.584 239.207 484.284 234.407 481.684 231.407 C 479.084 228.407 474.984 226.807 469.484 226.807 C 465.584 226.807 462.584 227.707 460.384 229.407 M 504.884 263.607 C 503.384 261.007 502.584 257.307 502.584 252.407 C 502.584 247.507 503.384 243.807 504.884 241.207 C 506.384 238.607 508.884 237.307 512.384 237.307 C 515.884 237.307 518.384 238.607 519.984 241.207 C 521.484 243.807 522.284 247.507 522.284 252.407 C 522.284 257.307 521.484 261.007 519.984 263.607 C 518.484 266.207 515.884 267.507 512.384 267.507 C 508.884 267.507 506.384 266.207 504.884 263.607 M 502.084 228.807 C 499.184 230.107 496.784 231.907 494.884 234.207 C 492.984 236.507 491.484 239.207 490.584 242.307 C 489.584 245.407 489.084 248.807 489.084 252.307 C 489.084 255.907 489.584 259.207 490.584 262.207 C 491.584 265.307 492.984 267.907 494.884 270.207 C 496.784 272.507 499.184 274.307 502.084 275.607 C 504.984 276.907 508.484 277.507 512.384 277.507 C 516.384 277.507 519.784 276.907 522.784 275.607 C 525.684 274.307 528.184 272.507 530.084 270.207 C 531.984 267.907 533.484 265.207 534.384 262.207 C 535.284 259.107 535.784 255.807 535.784 252.307 C 535.784 248.707 535.284 245.407 534.384 242.307 C 533.484 239.207 531.984 236.507 530.084 234.207 C 528.184 231.907 525.684 230.107 522.784 228.807 C 519.784 227.507 516.384 226.807 512.384 226.807 C 508.384 226.807 504.984 227.507 502.084 228.807 M 546.884 230.907 C 543.484 233.607 541.784 237.307 541.784 242.107 C 541.784 246.007 542.784 249.007 544.784 251.007 C 546.784 253.007 549.484 254.507 552.984 255.507 L 558.784 257.207 C 560.384 257.707 561.684 258.307 562.584 258.907 C 563.484 259.607 563.984 260.607 563.984 262.107 C 563.984 263.207 563.684 264.007 563.084 264.707 C 562.484 265.407 561.784 265.907 560.884 266.307 C 559.984 266.707 559.084 267.007 557.984 267.107 C 556.984 267.307 555.984 267.307 555.084 267.307 C 553.084 267.307 551.184 267.107 549.284 266.707 C 547.484 266.307 545.484 265.707 543.384 264.907 C 542.584 266.507 541.984 268.207 541.584 269.907 C 541.084 271.607 540.784 273.307 540.684 275.007 C 541.984 275.507 543.184 275.907 544.384 276.207 C 545.484 276.507 546.684 276.807 547.784 277.007 C 548.984 277.207 550.184 277.407 551.384 277.507 C 552.684 277.607 553.984 277.607 555.484 277.607 C 558.784 277.607 561.784 277.207 564.384 276.307 C 566.984 275.507 569.284 274.307 571.084 272.807 C 572.884 271.307 574.384 269.607 575.284 267.607 C 576.284 265.607 576.784 263.407 576.784 261.107 C 576.784 258.807 576.484 256.907 575.984 255.407 C 575.384 253.807 574.684 252.507 573.584 251.507 C 572.584 250.407 571.384 249.507 569.984 248.807 C 568.584 248.107 566.984 247.507 565.184 247.007 L 559.784 245.407 C 558.184 244.907 556.984 244.407 556.184 243.807 C 555.384 243.207 554.884 242.307 554.884 240.907 C 554.884 239.507 555.484 238.407 556.684 237.807 C 557.884 237.107 559.584 236.807 561.684 236.807 C 563.684 236.807 565.584 237.007 567.384 237.507 C 569.184 238.007 570.884 238.507 572.384 239.107 C 573.084 237.807 573.684 236.307 574.184 234.507 C 574.684 232.707 574.984 231.107 575.084 229.407 C 572.684 228.507 570.184 227.907 567.884 227.407 C 565.484 227.007 563.084 226.707 560.684 226.707 C 554.984 226.807 550.284 228.207 546.884 230.907 M 275.084 213.807 L 257.484 236.207 L 257.984 238.107 L 264.084 238.107 L 264.084 260.107 C 264.084 266.107 265.584 270.407 268.584 273.107 C 271.584 275.807 275.984 277.107 281.684 277.107 C 284.784 277.107 287.784 276.807 290.584 276.107 C 290.684 275.707 290.684 275.207 290.684 274.707 C 290.684 274.207 290.684 273.607 290.684 273.007 C 290.684 272.007 290.584 270.907 290.384 269.607 C 290.184 268.307 289.884 267.107 289.484 265.907 C 288.784 266.007 287.984 266.207 287.084 266.307 C 286.184 266.507 285.284 266.507 284.284 266.507 C 283.084 266.507 282.084 266.407 281.184 266.107 C 280.284 265.807 279.584 265.407 278.984 264.707 C 278.384 264.007 277.884 263.107 277.584 261.907 C 277.284 260.707 277.084 259.107 277.084 257.207 L 277.084 238.107 L 288.484 238.107 C 288.684 237.107 288.784 236.207 288.884 235.407 C 288.984 234.607 288.984 233.707 288.984 232.907 C 288.984 232.107 288.984 231.307 288.884 230.607 C 288.784 229.807 288.684 229.007 288.484 228.107 L 277.084 228.107 L 277.084 213.907 L 275.084 213.907 L 275.084 213.807 Z M 310.384 213.807 L 292.784 236.207 L 293.284 238.107 L 299.384 238.107 L 299.384 260.107 C 299.384 266.107 300.884 270.407 303.884 273.107 C 306.884 275.807 311.284 277.107 316.984 277.107 C 320.084 277.107 323.084 276.807 325.884 276.107 C 325.984 275.707 325.984 275.207 325.984 274.707 C 325.984 274.207 326.084 273.607 326.084 273.007 C 326.084 272.007 325.984 270.907 325.784 269.607 C 325.584 268.307 325.284 267.107 324.884 265.907 C 324.184 266.007 323.384 266.207 322.484 266.307 C 321.584 266.507 320.684 266.507 319.684 266.507 C 318.484 266.507 317.484 266.407 316.584 266.107 C 315.684 265.807 314.984 265.407 314.384 264.707 C 313.784 264.007 313.284 263.107 312.984 261.907 C 312.684 260.707 312.484 259.107 312.484 257.207 L 312.484 238.107 L 323.884 238.107 C 324.084 237.107 324.184 236.207 324.284 235.407 C 324.384 234.607 324.384 233.707 324.384 232.907 C 324.384 232.107 324.384 231.307 324.284 230.607 C 324.184 229.807 324.084 229.007 323.884 228.107 L 312.484 228.107 L 312.484 213.907 L 310.384 213.907 L 310.384 213.807 Z M 596.484 213.807 L 578.884 236.207 L 579.384 238.107 L 585.484 238.107 L 585.484 260.107 C 585.484 266.107 586.984 270.407 589.984 273.107 C 592.984 275.807 597.384 277.107 603.084 277.107 C 606.184 277.107 609.184 276.807 611.984 276.107 C 612.084 275.707 612.084 275.207 612.084 274.707 C 612.084 274.207 612.084 273.607 612.084 273.007 C 612.084 272.007 611.984 270.907 611.784 269.607 C 611.584 268.307 611.284 267.107 610.884 265.907 C 610.184 266.007 609.384 266.207 608.484 266.307 C 607.584 266.507 606.684 266.507 605.684 266.507 C 604.484 266.507 603.484 266.407 602.584 266.107 C 601.684 265.807 600.984 265.407 600.384 264.707 C 599.784 264.007 599.284 263.107 598.984 261.907 C 598.684 260.707 598.484 259.107 598.484 257.207 L 598.484 238.107 L 609.884 238.107 C 610.084 237.107 610.184 236.207 610.284 235.407 C 610.384 234.607 610.384 233.707 610.384 232.907 C 610.384 232.107 610.384 231.307 610.284 230.607 C 610.184 229.807 610.084 229.007 609.884 228.107 L 598.484 228.107 L 598.484 213.907 L 596.484 213.907 L 596.484 213.807 Z M 191.684 213.107 L 174.384 247.907 L 157.584 213.107 C 154.984 212.707 152.384 212.507 149.784 212.507 C 147.284 212.507 144.684 212.707 141.884 213.107 L 138.984 277.007 C 141.284 277.407 143.584 277.607 145.684 277.607 C 147.684 277.607 149.784 277.407 151.984 277.007 L 153.384 230.107 L 167.384 262.807 C 168.384 263.007 169.284 263.107 170.184 263.207 C 171.084 263.307 171.984 263.307 172.884 263.307 C 173.884 263.307 174.884 263.307 175.984 263.207 C 176.984 263.107 177.984 263.007 178.984 262.907 L 193.884 230.907 L 195.684 277.107 C 197.884 277.507 200.184 277.707 202.484 277.707 C 204.784 277.707 207.284 277.507 209.784 277.107 L 206.284 213.207 C 203.884 212.807 201.384 212.607 198.884 212.607 C 196.184 212.507 193.784 212.707 191.684 213.107" style="fill: rgb(255, 255, 255);"/>
  <path class="st1" d="M 76.184 200.007 L 76.084 200.007 C 75.984 200.107 75.884 200.107 75.684 200.307 C 75.084 200.907 72.984 203.707 72.984 203.707 L 68.384 209.407 L 62.984 215.907 L 53.784 227.407 C 53.784 227.407 49.584 232.707 50.484 239.207 C 51.384 245.707 56.284 248.907 59.984 250.107 C 63.684 251.407 69.484 251.807 74.184 247.207 C 78.884 242.607 78.684 235.807 78.684 235.807 L 78.284 221.107 L 77.984 212.607 L 77.784 205.307 C 77.784 205.307 77.784 201.807 77.684 200.907 C 77.684 200.707 77.584 200.607 77.584 200.507 L 77.584 200.407 C 77.484 200.207 77.284 200.007 76.984 199.907 C 76.884 199.907 76.784 199.807 76.584 199.807 C 76.484 199.907 76.284 199.907 76.184 200.007 M 61.184 195.407 C 40.784 195.607 21.784 208.607 14.884 229.007 C 6.184 254.907 19.984 283.007 45.784 291.807 C 50.984 293.607 56.284 294.407 61.584 294.407 L 61.684 294.407 C 82.284 294.407 101.384 281.407 108.384 260.807 C 115.484 239.807 107.684 217.207 90.684 204.807 L 91.184 215.307 C 99.684 224.707 103.084 238.007 98.784 250.607 C 92.484 269.307 71.684 279.107 52.284 272.607 C 32.884 266.007 22.284 245.507 28.684 226.807 C 32.884 214.207 43.684 205.707 56.184 203.407 L 62.984 195.407 C 62.684 195.407 62.384 195.407 62.084 195.407 L 61.184 195.407 L 61.184 195.407 Z" style="fill: rgb(0, 88, 204);"/>
</svg>